<svg id="Layer_1" enable-background="new 0 0 512 512" height="512" viewBox="0 0 512 512" width="512" xmlns="http://www.w3.org/2000/svg"><g id="XMLID_1252_"><path id="XMLID_3119_" d="m369.18 10h-327.18c-17.673 0-32 14.327-32 32v276c0 17.673 14.327 32 32 32h327.18c17.673 0 32-14.327 32-32v-276c0-17.673-14.326-32-32-32z" fill="#f9f6f4"/><path id="XMLID_3118_" d="m10 98h391.18v-56c0-17.673-14.327-32-32-32h-327.18c-17.673 0-32 14.327-32 32z" fill="#ff9b9b"/><g id="XMLID_612_"><path id="XMLID_23_" d="m10 98h386.579" fill="#231f20"/></g><g id="XMLID_3199_"><path id="XMLID_3197_" d="m502 401.187v-46.374h-20.203c-2.713-12.188-7.514-23.589-14.014-33.805l14.294-14.294-32.791-32.791-14.297 14.297c-10.215-6.497-21.615-11.295-33.801-14.005v-20.215h-46.374v20.215c-12.187 2.71-23.586 7.508-33.801 14.005l-14.297-14.297-32.791 32.791 14.294 14.294c-6.5 10.216-11.301 21.617-14.014 33.805h-20.205v46.374h20.197c2.71 12.192 7.509 23.597 14.008 33.816l-14.282 14.282 32.791 32.791 14.279-14.279c10.22 6.503 21.626 11.305 33.82 14.017v20.186h46.374v-20.185c12.194-2.712 23.6-7.514 33.82-14.017l14.279 14.279 32.791-32.791-14.282-14.282c6.499-10.22 11.299-21.624 14.008-33.816h20.197z" fill="#ffec80"/><path id="XMLID_3195_" d="m378 434.015c-30.928 0-56-25.072-56-56s25.072-56 56-56 56 25.072 56 56-25.072 56-56 56z" fill="#fff"/></g><g id="XMLID_565_"><path id="XMLID_567_" d="m334.738 44h-116.238c-5.523 0-10 4.477-10 10s4.477 10 10 10h116.238c5.523 0 10-4.477 10-10s-4.477-10-10-10z"/><path id="XMLID_600_" d="m102.45 44c-2.63 0-5.21 1.07-7.07 2.93s-2.93 4.44-2.93 7.07 1.07 5.21 2.93 7.07 4.44 2.93 7.07 2.93 5.21-1.07 7.07-2.93 2.93-4.44 2.93-7.07-1.07-5.21-2.93-7.07-4.44-2.93-7.07-2.93z"/><path id="XMLID_601_" d="m53.9 44c-2.63 0-5.21 1.07-7.07 2.93s-2.93 4.44-2.93 7.07 1.07 5.21 2.93 7.07 4.44 2.93 7.07 2.93 5.21-1.07 7.07-2.93 2.93-4.44 2.93-7.07-1.07-5.21-2.93-7.07-4.44-2.93-7.07-2.93z"/><path id="XMLID_602_" d="m151 44c-2.63 0-5.21 1.07-7.07 2.93s-2.93 4.44-2.93 7.07 1.07 5.21 2.93 7.07 4.44 2.93 7.07 2.93 5.21-1.07 7.07-2.93 2.93-4.44 2.93-7.07-1.07-5.21-2.93-7.07-4.44-2.93-7.07-2.93z"/><path id="XMLID_605_" d="m502 344.813h-12.472c-2.288-7.706-5.366-15.132-9.204-22.202l8.824-8.824c1.875-1.875 2.929-4.419 2.929-7.071s-1.054-5.195-2.929-7.071l-32.792-32.792c-3.905-3.904-10.237-3.904-14.142 0l-8.83 8.829c-7.07-3.835-14.495-6.912-22.198-9.198l-.006-224.484c0-23.159-18.841-42-42-42h-327.18c-23.159 0-42 18.841-42 42v276c0 23.159 18.841 42 42 42h45.645c5.523 0 10-4.478 10-10s-4.477-10-10-10h-45.645c-12.131 0-22-9.869-22-22v-210h371.18v136h-36.367c-5.523 0-10 4.477-10 10v12.482c-7.704 2.286-15.128 5.363-22.198 9.198l-8.83-8.829c-3.905-3.904-10.237-3.904-14.142 0l-32.791 32.792c-1.875 1.876-2.929 4.419-2.929 7.071s1.054 5.196 2.929 7.071l8.824 8.824c-3.033 5.586-5.583 11.397-7.652 17.39h-90.381c-5.523 0-10 4.478-10 10s4.477 10 10 10h66.357v41.187c0 5.522 4.477 10 10 10h12.463c2.287 7.71 5.364 15.139 9.203 22.214l-8.814 8.813c-3.905 3.905-3.905 10.237 0 14.143l32.791 32.792c1.875 1.875 4.419 2.929 7.071 2.929s5.196-1.054 7.071-2.929l8.81-8.811c7.076 3.842 14.507 6.922 22.218 9.21v12.453c0 5.522 4.477 10 10 10h46.374c5.523 0 10-4.478 10-10v-12.452c7.71-2.288 15.142-5.368 22.218-9.21l8.81 8.811c1.875 1.875 4.419 2.929 7.071 2.929s5.196-1.054 7.071-2.929l32.792-32.792c3.905-3.905 3.905-10.237 0-14.143l-8.814-8.813c3.839-7.075 6.917-14.504 9.203-22.214h12.462c5.523 0 10-4.478 10-10v-46.374c0-5.523-4.477-10-10-10zm-482-256.813v-46c0-12.131 9.869-22 22-22h327.18c12.131 0 22 9.869 22 22v46zm472 303.187h-10.197c-4.687 0-8.745 3.255-9.762 7.831-2.42 10.889-6.688 21.19-12.685 30.618-2.515 3.954-1.947 9.125 1.367 12.438l7.211 7.211-18.649 18.649-7.208-7.208c-3.314-3.313-8.485-3.883-12.439-1.365-9.431 6-19.734 10.271-30.623 12.692-4.575 1.018-7.829 5.075-7.829 9.762v10.185h-26.374v-10.185c0-4.687-3.254-8.744-7.829-9.762-10.888-2.421-21.191-6.692-30.623-12.692-3.955-2.518-9.125-1.948-12.439 1.365l-7.208 7.208-18.649-18.649 7.211-7.211c3.313-3.313 3.881-8.484 1.367-12.438-5.997-9.428-10.265-19.729-12.685-30.618-1.017-4.576-5.075-7.831-9.762-7.831h-10.195v-26.374h10.203c4.686 0 8.743-3.254 9.761-7.827 2.423-10.886 6.692-21.184 12.689-30.609 2.516-3.954 1.948-9.125-1.366-12.439l-7.222-7.222 18.649-18.649 7.226 7.226c3.313 3.313 8.482 3.88 12.437 1.367 9.426-5.994 19.723-10.261 30.606-12.682 4.574-1.018 7.829-5.075 7.829-9.762v-10.216h26.374v10.215c0 4.687 3.254 8.744 7.829 9.762 10.883 2.421 21.181 6.688 30.606 12.682 3.954 2.515 9.124 1.944 12.437-1.367l7.227-7.227 18.649 18.65-7.223 7.222c-3.314 3.314-3.882 8.485-1.366 12.439 5.997 9.426 10.267 19.724 12.689 30.609 1.018 4.573 5.076 7.827 9.761 7.827h10.205z"/><path id="XMLID_609_" d="m378 312.015c-36.393 0-66 29.607-66 66s29.607 66 66 66 66-29.607 66-66-29.607-66-66-66zm0 112c-25.364 0-46-20.636-46-46s20.636-46 46-46 46 20.636 46 46-20.636 46-46 46z"/><path id="XMLID_767_" d="m112.425 153.634c-.557-6.676-4.608-12.132-10.321-13.902-5.691-1.763-11.703.394-16.083 5.768-.337.413-.64.852-.906 1.313l-29.772 51.496c-1.789 3.094-1.791 6.907-.004 10.003 1.786 3.095 5.088 5.002 8.662 5.002h28.46v12.686c0 5.523 4.477 10 10 10s10-4.477 10-10v-12.688c5.434-.103 9.807-4.54 9.807-9.998s-4.373-9.896-9.807-9.998v-38.852c-.001-.276-.013-.554-.036-.83zm-19.965 39.68h-11.127l11.127-19.247z"/><path id="XMLID_883_" d="m293.146 153.634c-.557-6.676-4.608-12.132-10.322-13.902-5.688-1.763-11.702.394-16.082 5.768-.336.413-.639.852-.906 1.313l-29.773 51.496c-1.789 3.094-1.791 6.907-.004 10.003 1.786 3.095 5.088 5.002 8.662 5.002h28.46v12.686c0 5.523 4.477 10 10 10s10-4.477 10-10v-12.688c5.434-.103 9.807-4.54 9.807-9.998s-4.373-9.896-9.807-9.998v-38.852c0-.276-.012-.554-.035-.83zm-19.965 39.68h-11.127l11.127-19.246z"/><path id="XMLID_1484_" d="m210.721 203.773v-35.546c0-17.77-14.457-32.227-32.227-32.227s-32.227 14.457-32.227 32.227v35.546c0 17.77 14.457 32.227 32.227 32.227s32.227-14.457 32.227-32.227zm-44.454 0v-35.546c0-6.742 5.485-12.227 12.227-12.227s12.227 5.485 12.227 12.227v35.546c0 6.742-5.485 12.227-12.227 12.227s-12.227-5.485-12.227-12.227z"/><path id="XMLID_1502_" d="m62 285h141.289c5.523 0 10-4.478 10-10s-4.477-10-10-10h-141.289c-5.523 0-10 4.478-10 10s4.477 10 10 10z"/><path id="XMLID_1503_" d="m132.65 340c-2.64 0-5.21 1.069-7.08 2.93-1.86 1.86-2.93 4.44-2.93 7.07s1.07 5.21 2.93 7.069c1.87 1.86 4.44 2.931 7.08 2.931 2.63 0 5.2-1.07 7.06-2.931 1.87-1.859 2.93-4.439 2.93-7.069s-1.06-5.21-2.93-7.07c-1.86-1.861-4.43-2.93-7.06-2.93z"/></g></g></svg>